<svg id="Capa_1" enable-background="new 0 0 512 512" height="512" viewBox="0 0 512 512" width="512" xmlns="http://www.w3.org/2000/svg"><g><g><g><path d="m364.242 61.691c-9.043-9.043-20.693-13.884-32.53-14.538-.654-11.838-5.495-23.487-14.538-32.53-19.496-19.496-51.106-19.496-70.602 0s-19.496 51.106 0 70.602c4.127 4.127 8.801 7.371 13.784 9.75l-32.521 32.521 23.534 23.534 32.521-32.521c2.38 4.983 5.623 9.657 9.75 13.784 19.496 19.496 51.106 19.496 70.602 0 19.497-19.496 19.497-51.106 0-70.602zm-94.136 0c-6.499-6.499-6.499-17.035 0-23.534s17.035-6.499 23.534 0 6.499 17.035 0 23.534c-6.499 6.498-17.035 6.498-23.534 0zm47.068 47.068c-6.499-6.499-6.499-17.035 0-23.534s17.035-6.499 23.534 0 6.499 17.035 0 23.534c-6.498 6.499-17.035 6.499-23.534 0z" fill="#ffe07d"/></g><g><path d="m235.336 112.326h29.122v33.282h-29.122z" fill="#ffd064" transform="matrix(.707 -.707 .707 .707 -18 214.478)"/></g><g><g><path d="m279.857 464.452v11.982c0 1.105-.895 2-2 2h-4.997c-11.488 0-20.801 9.313-20.801 20.801v6.24c0 3.447 2.794 6.24 6.24 6.24h49.923c3.447 0 6.24-2.794 6.24-6.24v-39.298c0-.579-.049-1.156-.145-1.725z" fill="#e69642"/></g><g><path d="m313.906 462.819-39.963-117.149c-.402-1.177-.442-2.448-.117-3.649l18.306-67.468-73.239-10.781-4.95 65.133c-.741 9.747 1.396 19.498 6.146 28.042l59.767 107.505h34.461c-.093-.554-.23-1.1-.411-1.633z" fill="#30569f"/></g><g><path d="m119.106 302.553c-9.765 0-17.681-7.916-17.681-17.681v-17.681h35.362v17.681c0 9.765-7.916 17.681-17.681 17.681z" fill="#fed2a4"/></g><g><circle cx="94.237" cy="64.484" fill="#fed2a4" r="49.923"/></g><g><path d="m114.968 19.071c2.888 6.316 4.51 13.332 4.51 20.731 0 27.572-22.352 49.923-49.923 49.923-7.399 0-14.415-1.622-20.731-4.51 7.874 17.221 25.24 29.193 45.413 29.193 27.572 0 49.923-22.352 49.923-49.923 0-20.174-11.972-37.539-29.192-45.414z" fill="#ffbd86"/></g><g><path d="m218.894 263.772-4.95 65.133c-.741 9.747 1.396 19.497 6.146 28.041l21.25 38.223 3.565-19.743c.753-4.172 2.764-8.014 5.762-11.012l23.446-23.446 18.021-66.416z" fill="#26447e"/></g><g><path d="m297.403 197.066-17.54-17.54-73.737 73.737 3.771 3.77c1.397 1.397 1.619 3.584.531 5.233l-34.093 51.67c-5.392 8.172-8.266 17.746-8.266 27.536v122.979h33.282l19.258-106.646c.226-1.252.829-2.404 1.728-3.304l75.067-75.067c22.745-22.745 22.745-59.623-.001-82.368z" fill="#4172ca"/></g><g><path d="m297.403 197.066-17.54-17.54-19.2 19.2 17.54 17.54c22.746 22.746 22.746 59.624 0 82.37l19.2-19.2c22.746-22.747 22.746-59.625 0-82.37z" fill="#3a67c1"/></g><g><path d="m279.864 179.526-97.391-97.391c-9.748-9.748-25.553-9.748-35.301 0l-38.436 38.436c-4.874 4.874-7.311 11.263-7.311 17.651v128.969h35.362v-73.61c0-3.564 4.309-5.348 6.828-2.828l62.511 62.511z" fill="#f5fcff"/></g><g><path d="m182.473 82.135c-9.748-9.748-25.553-9.748-35.301 0l-19.207 19.207c9.748-9.748 25.553-9.748 35.301 0l97.391 97.391 19.207-19.207z" fill="#e6f7fe"/></g><g><path d="m168.068 464.452v11.982c0 1.105-.895 2-2 2h-6.321c-11.488 0-20.801 9.313-20.801 20.801v6.24c0 3.447 2.794 6.24 6.24 6.24h49.923c3.446 0 6.24-2.794 6.24-6.24v-41.023z" fill="#e9a761"/></g></g><g><g><path d="m149.423 45.763c0 13.786-11.176 24.962-24.962 24.962s-24.961-11.176-24.961-24.962c0-9.159 11.017-26.347 18.413-36.853 3.193-4.536 9.904-4.536 13.097 0 7.396 10.507 18.413 27.694 18.413 36.853z" fill="#91dafa"/></g><g><path d="m139.226 21.352c-.089 17.32-14.153 31.335-31.495 31.335-2.584 0-5.093-.318-7.496-.905 2.694 10.878 12.516 18.944 24.227 18.944 13.786 0 24.962-11.176 24.962-24.962-.001-6.049-4.805-15.598-10.198-24.412z" fill="#75cff9"/></g></g></g><g><g><path d="m440.645 341.291h-49.923v-22.882c0-5.744 4.657-10.401 10.401-10.401h29.122c5.744 0 10.401 4.657 10.401 10.401v22.882z" fill="#e6f7fe"/></g><g><path d="m446.885 512h-62.404c-11.488 0-20.801-9.313-20.801-20.801v-129.106c0-11.488 9.313-20.801 20.801-20.801h62.404c11.488 0 20.801 9.313 20.801 20.801v129.106c.001 11.488-9.313 20.801-20.801 20.801z" fill="#9c9c9c"/></g><g><path d="m437.382 460.362c-22.739 22.739-49.222 36.646-71.711 39.674 3.325 7.063 10.486 11.964 18.81 11.964h62.404c11.488 0 20.801-9.313 20.801-20.801v-72.772c-6.85 14.23-17.085 28.716-30.304 41.935z" fill="#838383"/></g><g><path d="m396.962 445.435v-62.862c0-4.418 3.582-8 8-8h21.443c4.418 0 8 3.582 8 8v62.862z" fill="#5a5a5a"/></g><g><path d="m396.962 470.718v-25.282h37.443v25.282c0 4.418-3.582 8-8 8h-21.443c-4.419 0-8-3.582-8-8z" fill="#df646e"/></g></g><path d="m151.787 176.486 4.31-3.162c3.339-2.45 4.06-7.145 1.61-10.483-2.451-3.34-7.144-4.06-10.484-1.61l-4.415 3.239c-3.771 2.766-6.021 7.208-6.021 11.885v17.226c0-3.564 4.309-5.348 6.828-2.828l8.172 8.172z" fill="#e6f7fe"/></g></svg>